# xmcd
#
# Track frame offsets:
#        150
#        14090
#        25235
#        39315
#        50485
#        64428
#        77285
#        90380
#        101758
#        114688
#        131595
#        141830
#        156363
#        171558
#        186443
#
# Disc length: 2858 seconds
#
# Revision: 0
# Processed by: cddbd v1.5.1PL0 Copyright (c) Steve Scherf et al.
# Submitted via: ExactAudioCopy v0.95b2
#
DISCID=d30b280f
DTITLE=Donavon Frankenreiter - Donavon Frankenreiter [Bonus Track]
DYEAR=2005
DGENRE=Rock
TTITLE0=It Don't Matter
TTITLE1=Free (Feat. Jack Johnson)
TTITLE2=On My Mind
TTITLE3=Our Love
TTITLE4=What'cha Know About (Feat. G.Love)
TTITLE5=Butterfly
TTITLE6=Bend In The Road
TTITLE7=Day Dreamer
TTITLE8=Make You Mine
TTITLE9=Call Me Papa
TTITLE10=Heading Home
TTITLE11=So Far Away
TTITLE12=Swing On Down
TTITLE13=It Don't Matter [Live]
TTITLE14=Make You Mine [Live]
EXTD=
EXTT0=
EXTT1=
EXTT2=
EXTT3=
EXTT4=
EXTT5=
EXTT6=
EXTT7=
EXTT8=
EXTT9=
EXTT10=
EXTT11=
EXTT12=
EXTT13=
EXTT14=
PLAYORDER=
